<!-- Generator: Adobe Illustrator 23.1.0, SVG Export Plug-In  -->
<svg version="1.1" xmlns="http://www.w3.org/2000/svg" xmlns:xlink="http://www.w3.org/1999/xlink" x="0px" y="0px"
	 width="323.91px" height="116.16px" viewBox="0 0 323.91 116.16" style="enable-background:new 0 0 323.91 116.16;"
	 xml:space="preserve">
<style type="text/css">
	.st0{fill:#414042;}
</style>
<defs>
</defs>
<g>
	<g>
		<path class="st0" d="M230.27,0h18.25v87.66h-18.25V0z"/>
		<path class="st0" d="M261.83,102.79l6.12-13.21c2.4,1.44,5.41,2.52,7.81,2.52c3.12,0,4.8-0.96,6.36-4.2l-25.22-64.6h19.33
			l14.65,43.83l14.05-43.83h18.97l-24.74,65.93c-4.92,13.09-10.21,18.01-21.13,18.01C271.44,107.23,266.51,105.55,261.83,102.79z"/>
		<path class="st0" d="M189.71,22.46c-7.23,0-13.89,2.39-19.29,6.38V0h-18.25v87.66h18.25v-6.5c5.4,3.99,12.06,6.38,19.29,6.38
			c17.97,0,32.54-14.57,32.54-32.54C222.24,37.03,207.68,22.46,189.71,22.46z M189.71,69.66c-8.1,0-14.66-6.56-14.66-14.66
			c0-8.1,6.56-14.66,14.66-14.66c8.1,0,14.66,6.56,14.66,14.66C204.37,63.09,197.8,69.66,189.71,69.66z"/>
		<path class="st0" d="M144,22.95h-18.25v36.96h-0.05c0.01,0.15,0.04,0.29,0.04,0.43c0,6.2-5.03,11.23-11.23,11.23
			c-6.2,0-11.23-5.03-11.23-11.23c0-0.15,0.04-0.29,0.04-0.43h-0.04V22.95H85.04v37.1h0.1c0.92,15.47,13.72,27.75,29.42,27.75
			c15.59,0,28.31-12.11,29.39-27.42H144V22.95z"/>
		<path class="st0" d="M32.78,3.6H0v84.06h32.78c26.42,0,44.67-18.37,44.67-42.03v-0.24C77.45,21.73,59.2,3.6,32.78,3.6z
			 M55.47,50.3L26.62,66.96c-3.6,2.08-8.09-0.52-8.09-4.67V28.97c0-4.15,4.49-6.75,8.09-4.67l28.85,16.66
			C59.06,43.04,59.06,48.23,55.47,50.3z"/>
	</g>
	<g>
		<path class="st0" d="M0,112.86v-11.12h6.97v1.44H1.68v3.39h4.93v1.44H1.68v3.4h5.36v1.44H0z"/>
		<path class="st0" d="M15.91,104.53l-3.02,8.34h-1.74l-3.03-8.34h1.74l2.11,6.42h0.09l2.11-6.42H15.91z"/>
		<path class="st0" d="M20.43,113.03c-0.82,0-1.53-0.18-2.12-0.53c-0.59-0.35-1.05-0.85-1.37-1.49s-0.48-1.39-0.48-2.26
			c0-0.86,0.16-1.61,0.48-2.26c0.32-0.65,0.77-1.16,1.35-1.53c0.58-0.36,1.25-0.55,2.03-0.55c0.47,0,0.93,0.08,1.37,0.23
			c0.44,0.16,0.84,0.4,1.19,0.73c0.35,0.33,0.63,0.76,0.83,1.29s0.31,1.17,0.31,1.93v0.58h-6.63v-1.22h5.04
			c0-0.43-0.09-0.81-0.26-1.14c-0.17-0.33-0.42-0.59-0.73-0.78c-0.31-0.19-0.68-0.29-1.1-0.29c-0.45,0-0.85,0.11-1.19,0.33
			c-0.34,0.22-0.6,0.51-0.78,0.87c-0.18,0.36-0.28,0.74-0.28,1.16v0.95c0,0.56,0.1,1.03,0.3,1.42c0.2,0.39,0.47,0.69,0.83,0.89
			c0.35,0.2,0.77,0.31,1.24,0.31c0.31,0,0.59-0.04,0.84-0.13c0.25-0.09,0.47-0.22,0.65-0.4c0.19-0.18,0.33-0.4,0.43-0.66l1.53,0.28
			c-0.12,0.45-0.34,0.85-0.66,1.18c-0.32,0.34-0.71,0.6-1.19,0.79C21.58,112.94,21.04,113.03,20.43,113.03z"/>
		<path class="st0" d="M25.51,112.86v-8.34h1.57v1.32h0.09c0.15-0.45,0.42-0.8,0.81-1.06s0.82-0.39,1.31-0.39
			c0.1,0,0.22,0,0.36,0.01c0.14,0.01,0.25,0.01,0.33,0.03v1.55c-0.07-0.02-0.18-0.04-0.35-0.06c-0.17-0.02-0.33-0.04-0.5-0.04
			c-0.38,0-0.72,0.08-1.02,0.24c-0.3,0.16-0.53,0.38-0.71,0.67c-0.18,0.29-0.26,0.61-0.26,0.97v5.09H25.51z"/>
		<path class="st0" d="M32.37,115.99c-0.24,0-0.46-0.02-0.66-0.06c-0.2-0.04-0.35-0.08-0.44-0.12l0.39-1.33
			c0.3,0.08,0.56,0.11,0.79,0.1c0.23-0.01,0.43-0.1,0.62-0.26c0.18-0.16,0.34-0.43,0.47-0.8l0.2-0.55l-3.05-8.45h1.74l2.11,6.47
			h0.09l2.11-6.47h1.74l-3.43,9.45c-0.16,0.43-0.36,0.8-0.61,1.11c-0.25,0.3-0.54,0.53-0.88,0.68
			C33.21,115.91,32.81,115.99,32.37,115.99z"/>
		<path class="st0" d="M44.54,101.75l3.09,9.05h0.12l3.1-9.05h1.81l-4,11.12h-1.94l-4-11.12H44.54z"/>
		<path class="st0" d="M54.64,103.24c-0.28,0-0.52-0.1-0.73-0.29c-0.2-0.19-0.3-0.42-0.3-0.68c0-0.27,0.1-0.5,0.3-0.69
			c0.2-0.19,0.44-0.29,0.73-0.29c0.28,0,0.53,0.1,0.73,0.29c0.2,0.19,0.3,0.42,0.3,0.69c0,0.26-0.1,0.49-0.3,0.68
			C55.17,103.15,54.93,103.24,54.64,103.24z M53.83,112.86v-8.34h1.62v8.34H53.83z"/>
		<path class="st0" d="M60.44,113.03c-0.67,0-1.27-0.17-1.8-0.52c-0.53-0.34-0.94-0.84-1.24-1.48c-0.3-0.64-0.45-1.41-0.45-2.32
			s0.15-1.67,0.45-2.31c0.3-0.64,0.72-1.13,1.25-1.47c0.53-0.34,1.13-0.51,1.8-0.51c0.52,0,0.93,0.09,1.25,0.26
			c0.32,0.17,0.56,0.37,0.74,0.6c0.18,0.23,0.31,0.43,0.41,0.6h0.1v-4.13h1.62v11.12h-1.59v-1.3h-0.13
			c-0.1,0.18-0.24,0.38-0.42,0.61c-0.18,0.23-0.43,0.43-0.75,0.6C61.36,112.94,60.95,113.03,60.44,113.03z M60.8,111.64
			c0.47,0,0.86-0.12,1.18-0.37c0.32-0.25,0.57-0.59,0.74-1.03c0.17-0.44,0.25-0.96,0.25-1.54c0-0.58-0.08-1.09-0.25-1.52
			c-0.17-0.43-0.41-0.77-0.73-1.01c-0.32-0.24-0.72-0.36-1.19-0.36c-0.49,0-0.9,0.13-1.22,0.38c-0.32,0.25-0.57,0.6-0.74,1.04
			c-0.17,0.44-0.25,0.93-0.25,1.48c0,0.56,0.08,1.06,0.25,1.5s0.41,0.8,0.74,1.06C59.92,111.51,60.32,111.64,60.8,111.64z"/>
		<path class="st0" d="M70.17,113.03c-0.82,0-1.53-0.18-2.12-0.53c-0.59-0.35-1.05-0.85-1.37-1.49s-0.48-1.39-0.48-2.26
			c0-0.86,0.16-1.61,0.48-2.26c0.32-0.65,0.77-1.16,1.35-1.53c0.58-0.36,1.25-0.55,2.03-0.55c0.47,0,0.93,0.08,1.37,0.23
			c0.44,0.16,0.84,0.4,1.19,0.73c0.35,0.33,0.63,0.76,0.83,1.29s0.31,1.17,0.31,1.93v0.58h-6.63v-1.22h5.04
			c0-0.43-0.09-0.81-0.26-1.14c-0.17-0.33-0.42-0.59-0.73-0.78c-0.31-0.19-0.68-0.29-1.1-0.29c-0.45,0-0.85,0.11-1.19,0.33
			c-0.34,0.22-0.6,0.51-0.78,0.87c-0.18,0.36-0.28,0.74-0.28,1.16v0.95c0,0.56,0.1,1.03,0.3,1.42c0.2,0.39,0.47,0.69,0.83,0.89
			c0.35,0.2,0.77,0.31,1.24,0.31c0.31,0,0.59-0.04,0.84-0.13c0.25-0.09,0.47-0.22,0.65-0.4c0.19-0.18,0.33-0.4,0.43-0.66l1.53,0.28
			c-0.12,0.45-0.34,0.85-0.66,1.18c-0.32,0.34-0.71,0.6-1.19,0.79C71.32,112.94,70.78,113.03,70.17,113.03z"/>
		<path class="st0" d="M78.77,113.03c-0.78,0-1.46-0.18-2.04-0.54c-0.58-0.36-1.04-0.86-1.36-1.5c-0.32-0.64-0.48-1.39-0.48-2.26
			c0-0.86,0.16-1.62,0.48-2.27c0.32-0.65,0.77-1.15,1.36-1.51c0.58-0.36,1.26-0.54,2.04-0.54c0.78,0,1.46,0.18,2.05,0.54
			c0.58,0.36,1.03,0.86,1.36,1.51c0.32,0.65,0.48,1.4,0.48,2.27c0,0.86-0.16,1.61-0.48,2.26c-0.32,0.64-0.77,1.15-1.36,1.5
			C80.23,112.85,79.55,113.03,78.77,113.03z M78.77,111.67c0.51,0,0.93-0.13,1.26-0.4c0.33-0.27,0.58-0.63,0.74-1.07
			s0.24-0.94,0.24-1.47c0-0.53-0.08-1.02-0.24-1.47c-0.16-0.45-0.41-0.81-0.74-1.08c-0.33-0.27-0.75-0.41-1.26-0.41
			s-0.93,0.14-1.27,0.41c-0.33,0.27-0.58,0.63-0.75,1.08c-0.16,0.45-0.24,0.94-0.24,1.47c0,0.53,0.08,1.03,0.24,1.47
			s0.41,0.8,0.75,1.07C77.84,111.53,78.26,111.67,78.77,111.67z"/>
		<path class="st0" d="M94.09,104.67c-0.06-0.51-0.3-0.91-0.72-1.2c-0.42-0.28-0.95-0.43-1.58-0.43c-0.46,0-0.85,0.07-1.18,0.21
			c-0.33,0.14-0.59,0.34-0.77,0.59c-0.18,0.25-0.28,0.53-0.28,0.85c0,0.26,0.06,0.49,0.19,0.68c0.12,0.19,0.29,0.35,0.49,0.48
			c0.21,0.13,0.43,0.24,0.66,0.32c0.24,0.08,0.46,0.15,0.68,0.21l1.08,0.28c0.36,0.09,0.72,0.2,1.09,0.35s0.72,0.34,1.04,0.59
			c0.32,0.24,0.58,0.54,0.77,0.9c0.2,0.36,0.3,0.79,0.3,1.28c0,0.63-0.16,1.19-0.49,1.68c-0.32,0.49-0.79,0.87-1.4,1.16
			c-0.61,0.28-1.36,0.43-2.22,0.43c-0.83,0-1.55-0.13-2.16-0.4c-0.61-0.26-1.08-0.64-1.43-1.13c-0.34-0.49-0.53-1.07-0.57-1.73h1.68
			c0.03,0.4,0.16,0.74,0.39,1c0.23,0.27,0.53,0.46,0.88,0.59c0.36,0.13,0.75,0.19,1.18,0.19c0.47,0,0.9-0.07,1.27-0.22
			c0.37-0.15,0.66-0.36,0.88-0.63c0.21-0.27,0.32-0.58,0.32-0.95c0-0.33-0.09-0.6-0.28-0.81c-0.19-0.21-0.44-0.38-0.75-0.52
			c-0.32-0.14-0.67-0.26-1.07-0.36l-1.31-0.36c-0.89-0.24-1.59-0.6-2.11-1.07c-0.52-0.47-0.78-1.09-0.78-1.87
			c0-0.64,0.17-1.2,0.52-1.68c0.35-0.48,0.82-0.85,1.41-1.11s1.26-0.4,2.01-0.4c0.75,0,1.42,0.13,2,0.4
			c0.58,0.26,1.03,0.63,1.37,1.09c0.33,0.46,0.51,0.99,0.52,1.59H94.09z"/>
		<path class="st0" d="M97.43,115.99v-11.46h1.58v1.35h0.14c0.09-0.17,0.23-0.37,0.41-0.6c0.18-0.23,0.42-0.43,0.74-0.6
			c0.32-0.17,0.73-0.26,1.25-0.26c0.67,0,1.27,0.17,1.8,0.51c0.53,0.34,0.95,0.83,1.25,1.47c0.3,0.64,0.45,1.41,0.45,2.31
			s-0.15,1.67-0.45,2.32c-0.3,0.64-0.71,1.14-1.24,1.48c-0.53,0.35-1.12,0.52-1.8,0.52c-0.51,0-0.92-0.09-1.24-0.26
			c-0.32-0.17-0.57-0.37-0.75-0.6c-0.18-0.23-0.32-0.43-0.42-0.61h-0.1v4.42H97.43z M99.02,108.7c0,0.59,0.08,1.1,0.25,1.54
			c0.17,0.44,0.42,0.78,0.74,1.03c0.32,0.25,0.72,0.37,1.18,0.37c0.48,0,0.89-0.13,1.21-0.39c0.33-0.26,0.57-0.61,0.74-1.06
			c0.17-0.44,0.25-0.95,0.25-1.5c0-0.55-0.08-1.05-0.25-1.48c-0.17-0.44-0.41-0.78-0.74-1.04c-0.33-0.25-0.74-0.38-1.22-0.38
			c-0.47,0-0.87,0.12-1.19,0.36c-0.32,0.24-0.57,0.58-0.74,1.01C99.1,107.61,99.02,108.12,99.02,108.7z"/>
		<path class="st0" d="M110.15,113.03c-0.82,0-1.53-0.18-2.12-0.53c-0.59-0.35-1.05-0.85-1.37-1.49s-0.48-1.39-0.48-2.26
			c0-0.86,0.16-1.61,0.48-2.26c0.32-0.65,0.77-1.16,1.35-1.53c0.58-0.36,1.25-0.55,2.03-0.55c0.47,0,0.93,0.08,1.37,0.23
			c0.44,0.16,0.84,0.4,1.19,0.73c0.35,0.33,0.63,0.76,0.83,1.29s0.31,1.17,0.31,1.93v0.58h-6.63v-1.22h5.04
			c0-0.43-0.09-0.81-0.26-1.14c-0.17-0.33-0.42-0.59-0.73-0.78c-0.31-0.19-0.68-0.29-1.1-0.29c-0.45,0-0.85,0.11-1.19,0.33
			c-0.34,0.22-0.6,0.51-0.78,0.87c-0.18,0.36-0.28,0.74-0.28,1.16v0.95c0,0.56,0.1,1.03,0.3,1.42c0.2,0.39,0.47,0.69,0.83,0.89
			c0.35,0.2,0.77,0.31,1.24,0.31c0.31,0,0.59-0.04,0.84-0.13c0.25-0.09,0.47-0.22,0.65-0.4c0.19-0.18,0.33-0.4,0.43-0.66l1.53,0.28
			c-0.12,0.45-0.34,0.85-0.66,1.18c-0.32,0.34-0.71,0.6-1.19,0.79C111.3,112.94,110.76,113.03,110.15,113.03z"/>
		<path class="st0" d="M117.65,113.05c-0.53,0-1.01-0.1-1.43-0.3c-0.43-0.2-0.76-0.48-1.01-0.86c-0.25-0.38-0.37-0.84-0.37-1.38
			c0-0.47,0.09-0.86,0.27-1.16c0.18-0.3,0.43-0.54,0.73-0.72c0.31-0.18,0.65-0.31,1.03-0.4c0.38-0.09,0.77-0.16,1.16-0.21
			c0.5-0.06,0.91-0.11,1.22-0.14c0.31-0.04,0.54-0.1,0.68-0.19c0.14-0.09,0.21-0.23,0.21-0.42v-0.04c0-0.47-0.13-0.84-0.4-1.1
			c-0.27-0.26-0.66-0.39-1.18-0.39c-0.55,0-0.98,0.12-1.29,0.36c-0.31,0.24-0.53,0.51-0.65,0.8l-1.52-0.35
			c0.18-0.51,0.45-0.92,0.8-1.23c0.35-0.31,0.75-0.54,1.21-0.68c0.46-0.14,0.94-0.21,1.44-0.21c0.33,0,0.69,0.04,1.06,0.12
			c0.37,0.08,0.73,0.22,1.05,0.43c0.33,0.21,0.6,0.5,0.81,0.88s0.32,0.88,0.32,1.49v5.54h-1.59v-1.14h-0.06
			c-0.11,0.21-0.26,0.42-0.47,0.62c-0.21,0.2-0.48,0.37-0.81,0.5C118.51,112.98,118.11,113.05,117.65,113.05z M118.01,111.74
			c0.45,0,0.83-0.09,1.15-0.27c0.32-0.18,0.56-0.41,0.73-0.7c0.17-0.29,0.25-0.6,0.25-0.93v-1.07c-0.06,0.06-0.17,0.11-0.33,0.16
			c-0.16,0.05-0.35,0.09-0.56,0.12c-0.21,0.03-0.42,0.06-0.61,0.09c-0.2,0.03-0.37,0.05-0.5,0.07c-0.32,0.04-0.6,0.11-0.86,0.2
			c-0.26,0.09-0.46,0.23-0.62,0.4s-0.23,0.41-0.23,0.7c0,0.4,0.15,0.7,0.44,0.91C117.17,111.64,117.55,111.74,118.01,111.74z"/>
		<path class="st0" d="M123.62,112.86v-11.12h1.62v11.12H123.62z M125.11,110.03l-0.01-1.98h0.28l3.32-3.53h1.94l-3.79,4.02h-0.25
			L125.11,110.03z M128.89,112.86l-2.99-3.96l1.12-1.13l3.86,5.1H128.89z"/>
		<path class="st0" d="M138.07,106.56l-1.47,0.26c-0.06-0.19-0.16-0.37-0.29-0.54c-0.13-0.17-0.31-0.31-0.53-0.42
			c-0.22-0.11-0.51-0.16-0.84-0.16c-0.46,0-0.84,0.1-1.15,0.31c-0.31,0.21-0.46,0.47-0.46,0.79c0,0.28,0.1,0.5,0.31,0.67
			c0.21,0.17,0.54,0.31,1,0.42l1.32,0.3c0.77,0.18,1.34,0.45,1.72,0.82c0.38,0.37,0.56,0.85,0.56,1.44c0,0.5-0.14,0.95-0.43,1.33
			c-0.29,0.39-0.69,0.69-1.2,0.91c-0.51,0.22-1.1,0.33-1.78,0.33c-0.93,0-1.7-0.2-2.28-0.6c-0.59-0.4-0.95-0.97-1.08-1.71l1.57-0.24
			c0.1,0.41,0.3,0.72,0.6,0.93c0.31,0.21,0.7,0.31,1.19,0.31c0.53,0,0.96-0.11,1.28-0.33c0.32-0.22,0.48-0.5,0.48-0.82
			c0-0.26-0.1-0.48-0.29-0.65c-0.2-0.18-0.49-0.31-0.89-0.4l-1.41-0.31c-0.78-0.18-1.35-0.46-1.72-0.85
			c-0.37-0.39-0.56-0.88-0.56-1.47c0-0.49,0.14-0.92,0.41-1.29c0.28-0.37,0.65-0.66,1.14-0.86c0.48-0.21,1.04-0.31,1.67-0.31
			c0.9,0,1.61,0.19,2.13,0.58C137.56,105.39,137.9,105.91,138.07,106.56z"/>
		<path class="st0" d="M142.72,101.75h1.91l2.9,5.05h0.12l2.9-5.05h1.91l-4.03,6.75v4.36h-1.67v-4.36L142.72,101.75z"/>
		<path class="st0" d="M155.76,113.03c-0.78,0-1.46-0.18-2.04-0.54c-0.58-0.36-1.04-0.86-1.36-1.5c-0.32-0.64-0.48-1.39-0.48-2.26
			c0-0.86,0.16-1.62,0.48-2.27c0.32-0.65,0.77-1.15,1.36-1.51c0.58-0.36,1.26-0.54,2.04-0.54c0.78,0,1.46,0.18,2.05,0.54
			c0.58,0.36,1.03,0.86,1.36,1.51c0.32,0.65,0.48,1.4,0.48,2.27c0,0.86-0.16,1.61-0.48,2.26c-0.32,0.64-0.77,1.15-1.36,1.5
			C157.23,112.85,156.54,113.03,155.76,113.03z M155.77,111.67c0.51,0,0.93-0.13,1.26-0.4c0.33-0.27,0.58-0.63,0.74-1.07
			c0.16-0.44,0.24-0.94,0.24-1.47c0-0.53-0.08-1.02-0.24-1.47c-0.16-0.45-0.41-0.81-0.74-1.08c-0.33-0.27-0.75-0.41-1.26-0.41
			s-0.93,0.14-1.27,0.41c-0.33,0.27-0.58,0.63-0.75,1.08c-0.16,0.45-0.24,0.94-0.24,1.47c0,0.53,0.08,1.03,0.24,1.47
			c0.16,0.44,0.41,0.8,0.75,1.07C154.84,111.53,155.26,111.67,155.77,111.67z"/>
		<path class="st0" d="M166.43,109.41v-4.88h1.63v8.34h-1.6v-1.44h-0.09c-0.19,0.44-0.5,0.82-0.92,1.11
			c-0.42,0.3-0.95,0.44-1.57,0.44c-0.53,0-1.01-0.12-1.42-0.35c-0.41-0.24-0.73-0.59-0.96-1.06c-0.23-0.47-0.35-1.05-0.35-1.73v-5.3
			h1.62v5.11c0,0.57,0.16,1.02,0.47,1.36c0.32,0.34,0.72,0.51,1.23,0.51c0.31,0,0.61-0.08,0.91-0.23c0.3-0.15,0.55-0.38,0.75-0.69
			C166.34,110.27,166.44,109.88,166.43,109.41z"/>
		<path class="st0" d="M169.93,112.86v-8.34h1.57v1.32h0.09c0.15-0.45,0.42-0.8,0.81-1.06s0.82-0.39,1.31-0.39
			c0.1,0,0.22,0,0.36,0.01c0.14,0.01,0.25,0.01,0.33,0.03v1.55c-0.07-0.02-0.18-0.04-0.35-0.06c-0.17-0.02-0.33-0.04-0.5-0.04
			c-0.38,0-0.72,0.08-1.02,0.24c-0.3,0.16-0.53,0.38-0.71,0.67c-0.18,0.29-0.26,0.61-0.26,0.97v5.09H169.93z"/>
		<path class="st0" d="M179.37,112.86v-11.12h1.68v9.67h5.04v1.44H179.37z"/>
		<path class="st0" d="M189.99,113.05c-0.53,0-1.01-0.1-1.43-0.3c-0.43-0.2-0.76-0.48-1.01-0.86c-0.25-0.38-0.37-0.84-0.37-1.38
			c0-0.47,0.09-0.86,0.27-1.16c0.18-0.3,0.43-0.54,0.73-0.72c0.31-0.18,0.65-0.31,1.03-0.4c0.38-0.09,0.77-0.16,1.16-0.21
			c0.5-0.06,0.91-0.11,1.22-0.14s0.54-0.1,0.68-0.19c0.14-0.09,0.21-0.23,0.21-0.42v-0.04c0-0.47-0.13-0.84-0.4-1.1
			c-0.27-0.26-0.66-0.39-1.18-0.39c-0.55,0-0.98,0.12-1.29,0.36c-0.31,0.24-0.53,0.51-0.65,0.8l-1.52-0.35
			c0.18-0.51,0.45-0.92,0.8-1.23c0.35-0.31,0.75-0.54,1.21-0.68c0.46-0.14,0.94-0.21,1.44-0.21c0.33,0,0.69,0.04,1.06,0.12
			c0.37,0.08,0.73,0.22,1.05,0.43c0.33,0.21,0.6,0.5,0.81,0.88c0.21,0.38,0.32,0.88,0.32,1.49v5.54h-1.59v-1.14h-0.06
			c-0.11,0.21-0.26,0.42-0.47,0.62c-0.21,0.2-0.48,0.37-0.81,0.5C190.84,112.98,190.45,113.05,189.99,113.05z M190.34,111.74
			c0.45,0,0.83-0.09,1.15-0.27c0.32-0.18,0.56-0.41,0.73-0.7c0.17-0.29,0.25-0.6,0.25-0.93v-1.07c-0.06,0.06-0.17,0.11-0.33,0.16
			c-0.16,0.05-0.35,0.09-0.56,0.12c-0.21,0.03-0.42,0.06-0.61,0.09c-0.2,0.03-0.37,0.05-0.5,0.07c-0.32,0.04-0.6,0.11-0.86,0.2
			c-0.26,0.09-0.46,0.23-0.62,0.4s-0.23,0.41-0.23,0.7c0,0.4,0.15,0.7,0.44,0.91C189.5,111.64,189.88,111.74,190.34,111.74z"/>
		<path class="st0" d="M197.58,107.91v4.95h-1.62v-8.34h1.56v1.36h0.1c0.19-0.44,0.49-0.8,0.9-1.07c0.41-0.27,0.93-0.4,1.56-0.4
			c0.57,0,1.07,0.12,1.49,0.35c0.43,0.24,0.76,0.59,0.99,1.06c0.23,0.47,0.35,1.05,0.35,1.73v5.3h-1.62v-5.11
			c0-0.6-0.16-1.08-0.47-1.42c-0.31-0.34-0.75-0.51-1.3-0.51c-0.38,0-0.71,0.08-1,0.24c-0.29,0.16-0.52,0.4-0.69,0.71
			C197.66,107.1,197.58,107.47,197.58,107.91z"/>
		<path class="st0" d="M208.27,116.16c-0.66,0-1.23-0.09-1.71-0.26c-0.48-0.17-0.86-0.4-1.17-0.69c-0.3-0.29-0.53-0.6-0.67-0.94
			l1.39-0.58c0.1,0.16,0.23,0.33,0.39,0.51c0.16,0.18,0.39,0.33,0.67,0.46c0.28,0.12,0.65,0.19,1.1,0.19c0.62,0,1.12-0.15,1.52-0.45
			c0.4-0.3,0.6-0.77,0.6-1.42v-1.64h-0.1c-0.1,0.18-0.24,0.37-0.42,0.59c-0.18,0.22-0.43,0.41-0.75,0.56
			c-0.32,0.16-0.73,0.24-1.24,0.24c-0.66,0-1.25-0.15-1.78-0.46c-0.53-0.31-0.94-0.77-1.25-1.37c-0.31-0.61-0.46-1.35-0.46-2.24
			s0.15-1.65,0.45-2.28c0.3-0.63,0.72-1.12,1.25-1.46c0.53-0.34,1.13-0.51,1.8-0.51c0.52,0,0.94,0.09,1.25,0.26
			c0.32,0.17,0.57,0.37,0.75,0.6c0.18,0.23,0.32,0.43,0.42,0.6h0.12v-1.35h1.59v8.52c0,0.72-0.17,1.3-0.5,1.76
			c-0.33,0.46-0.78,0.8-1.35,1.02C209.62,116.05,208.98,116.16,208.27,116.16z M208.26,111.39c0.47,0,0.86-0.11,1.18-0.33
			c0.32-0.22,0.57-0.53,0.74-0.94c0.17-0.41,0.25-0.9,0.25-1.48c0-0.56-0.08-1.05-0.25-1.48c-0.17-0.43-0.41-0.76-0.73-1
			c-0.32-0.24-0.72-0.36-1.19-0.36c-0.49,0-0.9,0.13-1.22,0.38c-0.32,0.25-0.57,0.59-0.74,1.02c-0.17,0.43-0.25,0.91-0.25,1.44
			c0,0.55,0.08,1.03,0.25,1.44c0.17,0.41,0.41,0.74,0.74,0.97C207.37,111.28,207.78,111.39,208.26,111.39z"/>
		<path class="st0" d="M219.19,109.41v-4.88h1.63v8.34h-1.6v-1.44h-0.09c-0.19,0.44-0.5,0.82-0.92,1.11
			c-0.42,0.3-0.95,0.44-1.57,0.44c-0.53,0-1.01-0.12-1.42-0.35c-0.41-0.24-0.73-0.59-0.96-1.06c-0.23-0.47-0.35-1.05-0.35-1.73v-5.3
			h1.62v5.11c0,0.57,0.16,1.02,0.47,1.36c0.32,0.34,0.72,0.51,1.23,0.51c0.31,0,0.61-0.08,0.91-0.23c0.3-0.15,0.55-0.38,0.75-0.69
			C219.09,110.27,219.19,109.88,219.19,109.41z"/>
		<path class="st0" d="M225.11,113.05c-0.53,0-1.01-0.1-1.43-0.3c-0.43-0.2-0.76-0.48-1.01-0.86c-0.25-0.38-0.37-0.84-0.37-1.38
			c0-0.47,0.09-0.86,0.27-1.16c0.18-0.3,0.43-0.54,0.73-0.72c0.31-0.18,0.65-0.31,1.03-0.4c0.38-0.09,0.77-0.16,1.16-0.21
			c0.5-0.06,0.91-0.11,1.22-0.14c0.31-0.04,0.54-0.1,0.68-0.19c0.14-0.09,0.21-0.23,0.21-0.42v-0.04c0-0.47-0.13-0.84-0.4-1.1
			c-0.27-0.26-0.66-0.39-1.18-0.39c-0.55,0-0.98,0.12-1.29,0.36c-0.31,0.24-0.53,0.51-0.65,0.8l-1.52-0.35
			c0.18-0.51,0.45-0.92,0.8-1.23c0.35-0.31,0.75-0.54,1.21-0.68c0.46-0.14,0.94-0.21,1.44-0.21c0.33,0,0.69,0.04,1.06,0.12
			c0.37,0.08,0.73,0.22,1.05,0.43c0.33,0.21,0.6,0.5,0.81,0.88c0.21,0.38,0.32,0.88,0.32,1.49v5.54h-1.59v-1.14h-0.06
			c-0.11,0.21-0.26,0.42-0.47,0.62c-0.21,0.2-0.48,0.37-0.81,0.5C225.97,112.98,225.57,113.05,225.11,113.05z M225.47,111.74
			c0.45,0,0.83-0.09,1.15-0.27c0.32-0.18,0.56-0.41,0.73-0.7s0.25-0.6,0.25-0.93v-1.07c-0.06,0.06-0.17,0.11-0.33,0.16
			c-0.16,0.05-0.35,0.09-0.56,0.12c-0.21,0.03-0.42,0.06-0.61,0.09c-0.2,0.03-0.37,0.05-0.5,0.07c-0.32,0.04-0.6,0.11-0.86,0.2
			c-0.26,0.09-0.46,0.23-0.62,0.4s-0.23,0.41-0.23,0.7c0,0.4,0.15,0.7,0.44,0.91C224.63,111.64,225.01,111.74,225.47,111.74z"/>
		<path class="st0" d="M234.58,116.16c-0.66,0-1.23-0.09-1.71-0.26c-0.48-0.17-0.86-0.4-1.17-0.69c-0.3-0.29-0.53-0.6-0.67-0.94
			l1.39-0.58c0.1,0.16,0.23,0.33,0.39,0.51c0.16,0.18,0.39,0.33,0.67,0.46c0.28,0.12,0.65,0.19,1.1,0.19c0.62,0,1.12-0.15,1.52-0.45
			c0.4-0.3,0.6-0.77,0.6-1.42v-1.64h-0.1c-0.1,0.18-0.24,0.37-0.42,0.59c-0.18,0.22-0.43,0.41-0.75,0.56
			c-0.32,0.16-0.73,0.24-1.24,0.24c-0.66,0-1.25-0.15-1.78-0.46c-0.53-0.31-0.94-0.77-1.25-1.37c-0.31-0.61-0.46-1.35-0.46-2.24
			s0.15-1.65,0.45-2.28c0.3-0.63,0.72-1.12,1.25-1.46c0.53-0.34,1.13-0.51,1.8-0.51c0.52,0,0.94,0.09,1.25,0.26
			c0.32,0.17,0.57,0.37,0.75,0.6c0.18,0.23,0.32,0.43,0.42,0.6h0.12v-1.35h1.59v8.52c0,0.72-0.17,1.3-0.5,1.76s-0.78,0.8-1.35,1.02
			C235.92,116.05,235.29,116.16,234.58,116.16z M234.56,111.39c0.47,0,0.86-0.11,1.18-0.33c0.32-0.22,0.57-0.53,0.74-0.94
			c0.17-0.41,0.25-0.9,0.25-1.48c0-0.56-0.08-1.05-0.25-1.48c-0.17-0.43-0.41-0.76-0.73-1c-0.32-0.24-0.72-0.36-1.19-0.36
			c-0.49,0-0.9,0.13-1.22,0.38c-0.32,0.25-0.57,0.59-0.74,1.02c-0.17,0.43-0.25,0.91-0.25,1.44c0,0.55,0.08,1.03,0.25,1.44
			c0.17,0.41,0.41,0.74,0.74,0.97C233.67,111.28,234.08,111.39,234.56,111.39z"/>
		<path class="st0" d="M243.8,113.03c-0.82,0-1.53-0.18-2.12-0.53c-0.59-0.35-1.05-0.85-1.37-1.49c-0.32-0.64-0.48-1.39-0.48-2.26
			c0-0.86,0.16-1.61,0.48-2.26c0.32-0.65,0.77-1.16,1.35-1.53c0.58-0.36,1.25-0.55,2.03-0.55c0.47,0,0.93,0.08,1.37,0.23
			c0.44,0.16,0.84,0.4,1.19,0.73c0.35,0.33,0.63,0.76,0.83,1.29s0.31,1.17,0.31,1.93v0.58h-6.63v-1.22h5.04
			c0-0.43-0.09-0.81-0.26-1.14c-0.17-0.33-0.42-0.59-0.73-0.78c-0.31-0.19-0.68-0.29-1.1-0.29c-0.45,0-0.85,0.11-1.19,0.33
			c-0.34,0.22-0.6,0.51-0.78,0.87c-0.18,0.36-0.28,0.74-0.28,1.16v0.95c0,0.56,0.1,1.03,0.3,1.42c0.2,0.39,0.47,0.69,0.83,0.89
			c0.35,0.2,0.77,0.31,1.24,0.31c0.31,0,0.59-0.04,0.84-0.13c0.25-0.09,0.47-0.22,0.65-0.4c0.19-0.18,0.33-0.4,0.43-0.66l1.53,0.28
			c-0.12,0.45-0.34,0.85-0.66,1.18c-0.32,0.34-0.71,0.6-1.19,0.79C244.95,112.94,244.41,113.03,243.8,113.03z"/>
		<path class="st0" d="M249.95,112.97c-0.3,0-0.55-0.11-0.76-0.32c-0.21-0.21-0.32-0.47-0.32-0.77c0-0.3,0.11-0.55,0.32-0.76
			c0.21-0.21,0.47-0.32,0.76-0.32c0.3,0,0.55,0.11,0.77,0.32c0.21,0.21,0.32,0.46,0.32,0.76c0,0.2-0.05,0.38-0.15,0.54
			c-0.1,0.17-0.23,0.3-0.4,0.39C250.33,112.92,250.15,112.97,249.95,112.97z"/>
	</g>
</g>
</svg>