<!-- Generator: Adobe Illustrator 23.1.0, SVG Export Plug-In  -->
<svg version="1.1" xmlns="http://www.w3.org/2000/svg" xmlns:xlink="http://www.w3.org/1999/xlink" x="0px" y="0px"
	 width="319.61px" height="131.19px" viewBox="0 0 319.61 131.19" style="enable-background:new 0 0 319.61 131.19;"
	 xml:space="preserve">
<style type="text/css">
	.st0{fill:#231F20;}
	.st1{fill:#FF4200;}
	.st2{fill:#FFFFFF;}
</style>
<defs>
</defs>
<g>
	<g>
		<path class="st0" d="M0,126.99v-14.15h8.87v1.84H2.13v4.31h6.28v1.83H2.13v4.33h6.82v1.84H0z"/>
		<path class="st0" d="M20.26,116.38l-3.85,10.62H14.2l-3.86-10.62h2.22l2.69,8.17h0.11l2.68-8.17H20.26z"/>
		<path class="st0" d="M26.01,127.21c-1.05,0-1.94-0.22-2.7-0.67c-0.75-0.45-1.33-1.08-1.74-1.9s-0.61-1.78-0.61-2.88
			c0-1.09,0.21-2.05,0.61-2.87c0.41-0.83,0.98-1.48,1.71-1.94c0.73-0.46,1.6-0.7,2.58-0.7c0.6,0,1.18,0.1,1.74,0.3
			c0.56,0.2,1.07,0.51,1.51,0.93c0.45,0.43,0.8,0.97,1.06,1.65c0.26,0.67,0.39,1.49,0.39,2.46v0.73h-8.44v-1.55h6.41
			c0-0.54-0.11-1.03-0.33-1.45c-0.22-0.42-0.53-0.75-0.93-1c-0.4-0.24-0.86-0.36-1.4-0.36c-0.58,0-1.09,0.14-1.51,0.42
			c-0.43,0.28-0.77,0.65-1,1.11c-0.23,0.45-0.35,0.95-0.35,1.47v1.21c0,0.71,0.13,1.31,0.38,1.81c0.25,0.5,0.6,0.88,1.05,1.14
			c0.45,0.26,0.98,0.39,1.58,0.39c0.39,0,0.75-0.06,1.07-0.17c0.32-0.12,0.6-0.28,0.83-0.51c0.24-0.22,0.42-0.5,0.54-0.84l1.95,0.35
			c-0.16,0.58-0.44,1.08-0.84,1.51c-0.4,0.43-0.91,0.77-1.51,1C27.48,127.09,26.78,127.21,26.01,127.21z"/>
		<path class="st0" d="M32.48,126.99v-10.62h2v1.69h0.11c0.19-0.57,0.53-1.02,1.03-1.35c0.49-0.33,1.05-0.49,1.67-0.49
			c0.13,0,0.28,0.01,0.46,0.02s0.31,0.02,0.42,0.03v1.97c-0.08-0.02-0.23-0.05-0.44-0.08c-0.21-0.03-0.43-0.05-0.64-0.05
			c-0.49,0-0.92,0.1-1.3,0.31c-0.38,0.21-0.68,0.49-0.9,0.85c-0.22,0.36-0.33,0.77-0.33,1.23v6.48H32.48z"/>
		<path class="st0" d="M41.21,130.97c-0.31,0-0.59-0.02-0.85-0.07c-0.25-0.05-0.44-0.1-0.57-0.16l0.5-1.69
			c0.38,0.1,0.72,0.15,1.01,0.13c0.29-0.01,0.55-0.12,0.78-0.33c0.23-0.21,0.43-0.55,0.6-1.02l0.26-0.71l-3.88-10.75h2.21l2.69,8.24
			h0.11l2.69-8.24h2.22l-4.37,12.03c-0.21,0.55-0.46,1.02-0.77,1.41c-0.31,0.38-0.69,0.67-1.12,0.86
			C42.28,130.88,41.78,130.97,41.21,130.97z"/>
		<path class="st0" d="M56.7,112.84l3.94,11.53h0.16l3.94-11.53h2.31l-5.09,14.15h-2.47l-5.09-14.15H56.7z"/>
		<path class="st0" d="M69.57,114.74c-0.36,0-0.67-0.12-0.92-0.36c-0.26-0.24-0.38-0.53-0.38-0.87c0-0.34,0.13-0.63,0.38-0.87
			c0.26-0.24,0.57-0.36,0.92-0.36c0.36,0,0.67,0.12,0.92,0.36c0.26,0.24,0.38,0.53,0.38,0.87c0,0.34-0.13,0.63-0.38,0.87
			C70.24,114.62,69.93,114.74,69.57,114.74z M68.53,126.99v-10.62h2.07v10.62H68.53z"/>
		<path class="st0" d="M76.96,127.2c-0.86,0-1.62-0.22-2.29-0.66c-0.67-0.44-1.2-1.07-1.58-1.88c-0.38-0.82-0.57-1.8-0.57-2.95
			s0.19-2.13,0.58-2.94c0.39-0.81,0.91-1.44,1.59-1.87c0.67-0.44,1.44-0.65,2.29-0.65c0.66,0,1.19,0.11,1.59,0.33
			c0.4,0.22,0.72,0.47,0.94,0.77c0.22,0.29,0.4,0.54,0.52,0.77h0.12v-5.26h2.07v14.15H80.2v-1.65h-0.17
			c-0.12,0.23-0.3,0.49-0.54,0.77c-0.23,0.29-0.55,0.54-0.95,0.76C78.12,127.09,77.6,127.2,76.96,127.2z M77.41,125.44
			c0.59,0,1.1-0.16,1.51-0.47c0.41-0.32,0.73-0.76,0.94-1.32c0.21-0.56,0.32-1.22,0.32-1.96c0-0.74-0.11-1.38-0.32-1.94
			c-0.21-0.55-0.53-0.98-0.93-1.29c-0.41-0.31-0.92-0.46-1.52-0.46c-0.62,0-1.14,0.16-1.56,0.49c-0.41,0.32-0.73,0.76-0.94,1.32
			c-0.21,0.56-0.31,1.18-0.31,1.89c0,0.71,0.11,1.35,0.32,1.91c0.21,0.57,0.53,1.01,0.94,1.34S76.8,125.44,77.41,125.44z"/>
		<path class="st0" d="M89.34,127.21c-1.05,0-1.94-0.22-2.7-0.67c-0.75-0.45-1.33-1.08-1.74-1.9s-0.61-1.78-0.61-2.88
			c0-1.09,0.21-2.05,0.61-2.87c0.41-0.83,0.98-1.48,1.71-1.94c0.73-0.46,1.6-0.7,2.58-0.7c0.6,0,1.18,0.1,1.74,0.3
			c0.56,0.2,1.07,0.51,1.51,0.93c0.45,0.43,0.8,0.97,1.06,1.65c0.26,0.67,0.39,1.49,0.39,2.46v0.73h-8.44v-1.55h6.41
			c0-0.54-0.11-1.03-0.33-1.45c-0.22-0.42-0.53-0.75-0.93-1c-0.4-0.24-0.86-0.36-1.4-0.36c-0.58,0-1.09,0.14-1.51,0.42
			c-0.43,0.28-0.77,0.65-1,1.11c-0.23,0.45-0.35,0.95-0.35,1.47v1.21c0,0.71,0.13,1.31,0.38,1.81c0.25,0.5,0.6,0.88,1.05,1.14
			c0.45,0.26,0.98,0.39,1.58,0.39c0.39,0,0.75-0.06,1.07-0.17c0.32-0.12,0.6-0.28,0.83-0.51c0.24-0.22,0.42-0.5,0.54-0.84l1.95,0.35
			c-0.16,0.58-0.44,1.08-0.84,1.51c-0.4,0.43-0.91,0.77-1.51,1C90.81,127.09,90.12,127.21,89.34,127.21z"/>
		<path class="st0" d="M100.28,127.21c-1,0-1.86-0.23-2.6-0.68c-0.74-0.46-1.32-1.09-1.73-1.92c-0.41-0.82-0.62-1.78-0.62-2.87
			c0-1.1,0.21-2.06,0.62-2.89c0.41-0.82,0.99-1.46,1.73-1.92c0.74-0.46,1.61-0.68,2.6-0.68c1,0,1.86,0.23,2.61,0.68
			c0.74,0.45,1.32,1.09,1.73,1.92c0.41,0.83,0.62,1.79,0.62,2.89c0,1.1-0.21,2.06-0.62,2.87c-0.41,0.82-0.99,1.46-1.73,1.92
			C102.14,126.98,101.28,127.21,100.28,127.21z M100.29,125.47c0.65,0,1.18-0.17,1.6-0.51c0.42-0.34,0.74-0.8,0.94-1.36
			c0.21-0.57,0.31-1.19,0.31-1.87c0-0.68-0.1-1.3-0.31-1.87c-0.21-0.57-0.52-1.03-0.94-1.37c-0.42-0.35-0.96-0.52-1.6-0.52
			c-0.65,0-1.18,0.17-1.61,0.52c-0.43,0.35-0.74,0.8-0.95,1.37c-0.21,0.57-0.31,1.19-0.31,1.87c0,0.68,0.1,1.31,0.31,1.87
			c0.21,0.57,0.52,1.02,0.95,1.36C99.1,125.3,99.64,125.47,100.29,125.47z"/>
		<path class="st0" d="M119.79,116.56c-0.07-0.65-0.38-1.16-0.91-1.52c-0.53-0.36-1.21-0.54-2.02-0.54c-0.58,0-1.08,0.09-1.51,0.27
			c-0.42,0.18-0.75,0.43-0.98,0.75c-0.23,0.32-0.35,0.67-0.35,1.08c0,0.34,0.08,0.63,0.24,0.87c0.16,0.24,0.37,0.45,0.63,0.61
			c0.26,0.16,0.54,0.3,0.84,0.41c0.3,0.11,0.59,0.2,0.86,0.26l1.38,0.36c0.45,0.11,0.91,0.26,1.39,0.45
			c0.48,0.19,0.91,0.44,1.32,0.75c0.41,0.31,0.73,0.69,0.99,1.15c0.25,0.45,0.38,1,0.38,1.64c0,0.8-0.21,1.51-0.62,2.14
			c-0.41,0.62-1.01,1.11-1.79,1.47c-0.78,0.36-1.73,0.54-2.83,0.54c-1.06,0-1.98-0.17-2.75-0.51c-0.77-0.34-1.38-0.81-1.82-1.43
			c-0.44-0.62-0.68-1.36-0.72-2.21h2.14c0.04,0.51,0.21,0.94,0.5,1.28c0.29,0.34,0.67,0.59,1.13,0.76c0.46,0.16,0.96,0.24,1.51,0.24
			c0.6,0,1.14-0.09,1.61-0.29c0.47-0.19,0.85-0.46,1.12-0.8c0.27-0.34,0.41-0.74,0.41-1.2c0-0.42-0.12-0.76-0.35-1.03
			c-0.24-0.27-0.56-0.49-0.96-0.67c-0.4-0.17-0.86-0.33-1.37-0.46l-1.67-0.46c-1.13-0.31-2.03-0.76-2.69-1.36
			c-0.66-0.6-0.99-1.39-0.99-2.38c0-0.81,0.22-1.53,0.66-2.14c0.44-0.61,1.04-1.08,1.8-1.42c0.76-0.34,1.61-0.51,2.56-0.51
			c0.96,0,1.8,0.17,2.54,0.51c0.73,0.34,1.31,0.8,1.74,1.38c0.42,0.59,0.64,1.26,0.66,2.02H119.79z"/>
		<path class="st0" d="M124.04,130.97v-14.6h2.02v1.72h0.17c0.12-0.22,0.29-0.48,0.52-0.77c0.22-0.29,0.54-0.54,0.94-0.77
			c0.4-0.22,0.93-0.33,1.59-0.33c0.86,0,1.62,0.21,2.29,0.65c0.67,0.43,1.2,1.06,1.59,1.87c0.39,0.81,0.58,1.79,0.58,2.94
			s-0.19,2.13-0.58,2.95c-0.38,0.82-0.91,1.45-1.57,1.88c-0.67,0.44-1.43,0.66-2.29,0.66c-0.64,0-1.17-0.11-1.58-0.33
			c-0.41-0.21-0.73-0.47-0.96-0.76c-0.23-0.29-0.41-0.55-0.53-0.77h-0.12v5.63H124.04z M126.07,121.69c0,0.75,0.11,1.4,0.32,1.96
			c0.22,0.56,0.53,1,0.94,1.32c0.41,0.31,0.91,0.47,1.51,0.47c0.62,0,1.13-0.16,1.55-0.49c0.42-0.33,0.73-0.78,0.95-1.34
			c0.21-0.57,0.32-1.2,0.32-1.91c0-0.7-0.11-1.33-0.31-1.89c-0.21-0.56-0.52-1-0.94-1.32c-0.42-0.32-0.94-0.49-1.56-0.49
			c-0.6,0-1.11,0.16-1.52,0.46c-0.41,0.31-0.72,0.74-0.94,1.29C126.17,120.3,126.07,120.95,126.07,121.69z"/>
		<path class="st0" d="M140.24,127.21c-1.05,0-1.94-0.22-2.7-0.67c-0.75-0.45-1.33-1.08-1.74-1.9c-0.41-0.82-0.61-1.78-0.61-2.88
			c0-1.09,0.21-2.05,0.61-2.87c0.41-0.83,0.98-1.48,1.71-1.94c0.73-0.46,1.6-0.7,2.58-0.7c0.6,0,1.18,0.1,1.74,0.3
			c0.56,0.2,1.07,0.51,1.51,0.93c0.45,0.43,0.8,0.97,1.06,1.65s0.39,1.49,0.39,2.46v0.73h-8.44v-1.55h6.41
			c0-0.54-0.11-1.03-0.33-1.45c-0.22-0.42-0.53-0.75-0.93-1c-0.4-0.24-0.86-0.36-1.4-0.36c-0.58,0-1.09,0.14-1.51,0.42
			c-0.43,0.28-0.77,0.65-1,1.11c-0.23,0.45-0.35,0.95-0.35,1.47v1.21c0,0.71,0.13,1.31,0.38,1.81c0.25,0.5,0.6,0.88,1.05,1.14
			c0.45,0.26,0.98,0.39,1.58,0.39c0.39,0,0.75-0.06,1.07-0.17c0.32-0.12,0.6-0.28,0.83-0.51c0.24-0.22,0.42-0.5,0.54-0.84l1.95,0.35
			c-0.16,0.58-0.44,1.08-0.84,1.51c-0.4,0.43-0.91,0.77-1.51,1C141.7,127.09,141.01,127.21,140.24,127.21z"/>
		<path class="st0" d="M149.79,127.23c-0.67,0-1.28-0.13-1.83-0.38c-0.54-0.25-0.97-0.62-1.29-1.09c-0.32-0.48-0.47-1.07-0.47-1.76
			c0-0.6,0.12-1.09,0.35-1.48c0.23-0.39,0.54-0.69,0.93-0.92c0.39-0.23,0.83-0.4,1.31-0.51c0.48-0.12,0.98-0.2,1.48-0.26
			c0.64-0.07,1.15-0.13,1.55-0.18c0.39-0.05,0.68-0.13,0.86-0.24c0.18-0.11,0.27-0.29,0.27-0.54v-0.05c0-0.6-0.17-1.07-0.51-1.4
			c-0.34-0.33-0.84-0.5-1.51-0.5c-0.7,0-1.24,0.16-1.64,0.46c-0.4,0.31-0.67,0.65-0.83,1.02l-1.94-0.44
			c0.23-0.65,0.57-1.17,1.01-1.57c0.44-0.4,0.95-0.69,1.54-0.87c0.58-0.18,1.19-0.27,1.83-0.27c0.42,0,0.87,0.05,1.35,0.15
			c0.48,0.1,0.92,0.28,1.34,0.54c0.42,0.26,0.76,0.64,1.03,1.12c0.27,0.49,0.4,1.12,0.4,1.89v7.05h-2.02v-1.45h-0.08
			c-0.13,0.27-0.34,0.53-0.6,0.79c-0.27,0.26-0.61,0.47-1.03,0.64C150.88,127.14,150.38,127.23,149.79,127.23z M150.24,125.57
			c0.57,0,1.06-0.11,1.47-0.34c0.41-0.22,0.72-0.52,0.93-0.89s0.32-0.76,0.32-1.18v-1.37c-0.07,0.07-0.22,0.14-0.43,0.21
			c-0.21,0.06-0.45,0.12-0.72,0.16s-0.53,0.08-0.78,0.12c-0.26,0.03-0.47,0.06-0.63,0.08c-0.4,0.05-0.77,0.14-1.1,0.26
			c-0.33,0.12-0.59,0.29-0.79,0.51c-0.2,0.22-0.29,0.52-0.29,0.89c0,0.51,0.19,0.9,0.57,1.16
			C149.17,125.44,149.66,125.57,150.24,125.57z"/>
		<path class="st0" d="M157.39,126.99v-14.15h2.07v14.15H157.39z M159.29,123.39l-0.02-2.52h0.36l4.23-4.49h2.48l-4.82,5.11h-0.32
			L159.29,123.39z M164.09,126.99l-3.8-5.04l1.42-1.44l4.91,6.49H164.09z"/>
		<path class="st0" d="M175.78,118.97l-1.87,0.33c-0.08-0.24-0.2-0.47-0.37-0.68s-0.39-0.39-0.68-0.53
			c-0.29-0.14-0.64-0.21-1.07-0.21c-0.58,0-1.07,0.13-1.46,0.39c-0.39,0.26-0.59,0.59-0.59,1c0,0.35,0.13,0.64,0.39,0.86
			c0.26,0.21,0.69,0.39,1.27,0.53l1.69,0.39c0.98,0.23,1.7,0.58,2.19,1.05c0.48,0.47,0.72,1.08,0.72,1.83c0,0.64-0.18,1.2-0.55,1.7
			c-0.37,0.49-0.87,0.88-1.53,1.16c-0.65,0.28-1.41,0.42-2.26,0.42c-1.19,0-2.16-0.26-2.91-0.77c-0.75-0.51-1.21-1.23-1.38-2.17
			l2-0.3c0.12,0.52,0.38,0.91,0.77,1.18c0.39,0.26,0.89,0.39,1.51,0.39c0.68,0,1.22-0.14,1.62-0.42s0.61-0.63,0.61-1.04
			c0-0.33-0.12-0.61-0.37-0.83c-0.25-0.23-0.63-0.4-1.13-0.51l-1.79-0.39c-0.99-0.22-1.72-0.58-2.2-1.08
			c-0.47-0.49-0.71-1.12-0.71-1.87c0-0.63,0.18-1.18,0.53-1.65c0.35-0.47,0.83-0.84,1.45-1.1c0.62-0.27,1.32-0.4,2.12-0.4
			c1.15,0,2.05,0.25,2.71,0.74C175.14,117.48,175.57,118.14,175.78,118.97z"/>
		<path class="st0" d="M181.71,112.84h2.43l3.69,6.43h0.15l3.7-6.43h2.43l-5.13,8.6v5.55h-2.13v-5.55L181.71,112.84z"/>
		<path class="st0" d="M198.31,127.21c-1,0-1.86-0.23-2.6-0.68c-0.74-0.46-1.32-1.09-1.73-1.92c-0.41-0.82-0.62-1.78-0.62-2.87
			c0-1.1,0.21-2.06,0.62-2.89c0.41-0.82,0.99-1.46,1.73-1.92c0.74-0.46,1.61-0.68,2.6-0.68s1.86,0.23,2.61,0.68
			c0.74,0.45,1.32,1.09,1.73,1.92c0.41,0.83,0.62,1.79,0.62,2.89c0,1.1-0.21,2.06-0.62,2.87c-0.41,0.82-0.99,1.46-1.73,1.92
			C200.17,126.98,199.31,127.21,198.31,127.21z M198.32,125.47c0.65,0,1.18-0.17,1.6-0.51c0.42-0.34,0.74-0.8,0.94-1.36
			c0.21-0.57,0.31-1.19,0.31-1.87c0-0.68-0.1-1.3-0.31-1.87c-0.21-0.57-0.52-1.03-0.94-1.37c-0.42-0.35-0.96-0.52-1.6-0.52
			c-0.65,0-1.18,0.17-1.61,0.52c-0.43,0.35-0.74,0.8-0.95,1.37c-0.21,0.57-0.31,1.19-0.31,1.87c0,0.68,0.1,1.31,0.31,1.87
			c0.21,0.57,0.52,1.02,0.95,1.36C197.13,125.3,197.67,125.47,198.32,125.47z"/>
		<path class="st0" d="M211.89,122.59v-6.21h2.07v10.62h-2.03v-1.84h-0.11c-0.24,0.57-0.63,1.04-1.17,1.41
			c-0.54,0.38-1.2,0.56-2,0.56c-0.68,0-1.28-0.15-1.81-0.45c-0.52-0.3-0.93-0.75-1.23-1.34c-0.3-0.59-0.44-1.33-0.44-2.21v-6.75
			h2.07v6.5c0,0.72,0.2,1.3,0.6,1.73c0.4,0.43,0.92,0.64,1.56,0.64c0.39,0,0.77-0.1,1.16-0.29c0.38-0.19,0.7-0.49,0.96-0.88
			C211.78,123.69,211.9,123.19,211.89,122.59z"/>
		<path class="st0" d="M216.35,126.99v-10.62h2v1.69h0.11c0.19-0.57,0.53-1.02,1.03-1.35c0.49-0.33,1.05-0.49,1.67-0.49
			c0.13,0,0.28,0.01,0.46,0.02c0.18,0.01,0.31,0.02,0.42,0.03v1.97c-0.08-0.02-0.23-0.05-0.44-0.08c-0.21-0.03-0.43-0.05-0.64-0.05
			c-0.49,0-0.92,0.1-1.3,0.31c-0.38,0.21-0.68,0.49-0.9,0.85c-0.22,0.36-0.33,0.77-0.33,1.23v6.48H216.35z"/>
		<path class="st0" d="M228.37,126.99v-14.15h2.13v12.31h6.41v1.84H228.37z"/>
		<path class="st0" d="M241.89,127.23c-0.67,0-1.28-0.13-1.83-0.38c-0.54-0.25-0.97-0.62-1.29-1.09c-0.32-0.48-0.47-1.07-0.47-1.76
			c0-0.6,0.12-1.09,0.35-1.48c0.23-0.39,0.54-0.69,0.93-0.92c0.39-0.23,0.83-0.4,1.31-0.51c0.48-0.12,0.98-0.2,1.48-0.26
			c0.64-0.07,1.15-0.13,1.55-0.18c0.4-0.05,0.68-0.13,0.86-0.24c0.18-0.11,0.27-0.29,0.27-0.54v-0.05c0-0.6-0.17-1.07-0.51-1.4
			c-0.34-0.33-0.84-0.5-1.51-0.5c-0.7,0-1.24,0.16-1.64,0.46c-0.4,0.31-0.67,0.65-0.83,1.02l-1.94-0.44
			c0.23-0.65,0.57-1.17,1.01-1.57c0.44-0.4,0.95-0.69,1.54-0.87c0.58-0.18,1.19-0.27,1.83-0.27c0.42,0,0.87,0.05,1.35,0.15
			c0.48,0.1,0.92,0.28,1.34,0.54c0.42,0.26,0.76,0.64,1.03,1.12c0.27,0.49,0.4,1.12,0.4,1.89v7.05h-2.02v-1.45h-0.08
			c-0.13,0.27-0.34,0.53-0.6,0.79c-0.27,0.26-0.61,0.47-1.03,0.64C242.97,127.14,242.47,127.23,241.89,127.23z M242.33,125.57
			c0.57,0,1.06-0.11,1.47-0.34c0.41-0.22,0.72-0.52,0.93-0.89s0.32-0.76,0.32-1.18v-1.37c-0.07,0.07-0.22,0.14-0.43,0.21
			c-0.21,0.06-0.45,0.12-0.72,0.16c-0.27,0.04-0.53,0.08-0.78,0.12c-0.26,0.03-0.47,0.06-0.63,0.08c-0.4,0.05-0.77,0.14-1.1,0.26
			c-0.33,0.12-0.59,0.29-0.79,0.51c-0.2,0.22-0.29,0.52-0.29,0.89c0,0.51,0.19,0.9,0.57,1.16
			C241.27,125.44,241.75,125.57,242.33,125.57z"/>
		<path class="st0" d="M251.55,120.69v6.3h-2.07v-10.62h1.98v1.73h0.13c0.25-0.56,0.63-1.01,1.15-1.36
			c0.53-0.34,1.18-0.51,1.98-0.51c0.72,0,1.36,0.15,1.9,0.45s0.96,0.75,1.27,1.34c0.3,0.6,0.45,1.33,0.45,2.21v6.75h-2.07v-6.5
			c0-0.77-0.2-1.37-0.6-1.81c-0.4-0.44-0.95-0.65-1.65-0.65c-0.48,0-0.9,0.11-1.28,0.31c-0.37,0.21-0.66,0.51-0.88,0.91
			C251.65,119.65,251.55,120.13,251.55,120.69z"/>
		<path class="st0" d="M265.17,131.19c-0.84,0-1.57-0.11-2.17-0.33c-0.61-0.22-1.1-0.51-1.48-0.88c-0.38-0.36-0.67-0.76-0.86-1.19
			l1.78-0.73c0.12,0.2,0.29,0.42,0.5,0.65c0.21,0.23,0.49,0.42,0.86,0.58c0.36,0.16,0.83,0.24,1.4,0.24c0.78,0,1.43-0.19,1.94-0.57
			c0.51-0.38,0.77-0.98,0.77-1.81v-2.09h-0.13c-0.12,0.22-0.3,0.48-0.53,0.75c-0.23,0.28-0.55,0.52-0.96,0.72s-0.93,0.3-1.58,0.3
			c-0.84,0-1.59-0.2-2.26-0.59c-0.67-0.39-1.2-0.98-1.59-1.75c-0.39-0.77-0.58-1.72-0.58-2.85s0.19-2.1,0.58-2.9
			c0.39-0.81,0.91-1.42,1.59-1.85c0.67-0.43,1.44-0.65,2.29-0.65c0.66,0,1.19,0.11,1.6,0.33c0.4,0.22,0.72,0.47,0.95,0.77
			c0.23,0.29,0.4,0.54,0.53,0.77h0.15v-1.72h2.02v10.85c0,0.91-0.21,1.66-0.63,2.25c-0.42,0.58-1,1.02-1.72,1.3
			C266.88,131.05,266.07,131.19,265.17,131.19z M265.15,125.12c0.59,0,1.1-0.14,1.51-0.42c0.41-0.28,0.73-0.68,0.94-1.2
			c0.21-0.52,0.32-1.15,0.32-1.88c0-0.71-0.11-1.34-0.32-1.88c-0.21-0.54-0.53-0.97-0.93-1.28c-0.41-0.31-0.92-0.46-1.52-0.46
			c-0.62,0-1.14,0.16-1.56,0.48c-0.41,0.32-0.73,0.75-0.94,1.3c-0.21,0.55-0.31,1.16-0.31,1.84c0,0.7,0.11,1.31,0.32,1.83
			c0.21,0.53,0.53,0.94,0.94,1.23C264.02,124.97,264.53,125.12,265.15,125.12z"/>
		<path class="st0" d="M279.06,122.59v-6.21h2.07v10.62h-2.03v-1.84h-0.11c-0.24,0.57-0.63,1.04-1.17,1.41
			c-0.54,0.38-1.2,0.56-2,0.56c-0.68,0-1.28-0.15-1.81-0.45c-0.52-0.3-0.93-0.75-1.23-1.34c-0.3-0.59-0.44-1.33-0.44-2.21v-6.75
			h2.07v6.5c0,0.72,0.2,1.3,0.6,1.73c0.4,0.43,0.92,0.64,1.56,0.64c0.39,0,0.77-0.1,1.16-0.29c0.38-0.19,0.7-0.49,0.96-0.88
			C278.94,123.69,279.07,123.19,279.06,122.59z"/>
		<path class="st0" d="M286.61,127.23c-0.67,0-1.28-0.13-1.83-0.38c-0.54-0.25-0.97-0.62-1.29-1.09c-0.32-0.48-0.47-1.07-0.47-1.76
			c0-0.6,0.12-1.09,0.35-1.48c0.23-0.39,0.54-0.69,0.93-0.92c0.39-0.23,0.83-0.4,1.31-0.51c0.48-0.12,0.98-0.2,1.48-0.26
			c0.64-0.07,1.15-0.13,1.55-0.18c0.39-0.05,0.68-0.13,0.86-0.24c0.18-0.11,0.27-0.29,0.27-0.54v-0.05c0-0.6-0.17-1.07-0.51-1.4
			c-0.34-0.33-0.84-0.5-1.51-0.5c-0.7,0-1.24,0.16-1.64,0.46c-0.4,0.31-0.67,0.65-0.83,1.02l-1.94-0.44
			c0.23-0.65,0.57-1.17,1.01-1.57c0.44-0.4,0.95-0.69,1.54-0.87c0.58-0.18,1.19-0.27,1.83-0.27c0.42,0,0.87,0.05,1.35,0.15
			c0.48,0.1,0.92,0.28,1.34,0.54c0.42,0.26,0.76,0.64,1.03,1.12c0.27,0.49,0.4,1.12,0.4,1.89v7.05h-2.02v-1.45h-0.08
			c-0.13,0.27-0.34,0.53-0.6,0.79c-0.27,0.26-0.61,0.47-1.03,0.64C287.69,127.14,287.19,127.23,286.61,127.23z M287.05,125.57
			c0.57,0,1.06-0.11,1.47-0.34c0.41-0.22,0.72-0.52,0.93-0.89s0.32-0.76,0.32-1.18v-1.37c-0.07,0.07-0.22,0.14-0.43,0.21
			c-0.21,0.06-0.45,0.12-0.72,0.16c-0.27,0.04-0.53,0.08-0.78,0.12c-0.26,0.03-0.47,0.06-0.63,0.08c-0.4,0.05-0.77,0.14-1.1,0.26
			c-0.33,0.12-0.59,0.29-0.79,0.51c-0.2,0.22-0.29,0.52-0.29,0.89c0,0.51,0.19,0.9,0.57,1.16
			C285.99,125.44,286.47,125.57,287.05,125.57z"/>
		<path class="st0" d="M298.65,131.19c-0.84,0-1.57-0.11-2.17-0.33c-0.61-0.22-1.1-0.51-1.48-0.88c-0.38-0.36-0.67-0.76-0.86-1.19
			l1.78-0.73c0.12,0.2,0.29,0.42,0.5,0.65c0.21,0.23,0.49,0.42,0.86,0.58c0.36,0.16,0.83,0.24,1.4,0.24c0.78,0,1.43-0.19,1.94-0.57
			c0.51-0.38,0.77-0.98,0.77-1.81v-2.09h-0.13c-0.12,0.22-0.3,0.48-0.53,0.75c-0.23,0.28-0.55,0.52-0.96,0.72s-0.93,0.3-1.58,0.3
			c-0.84,0-1.59-0.2-2.26-0.59c-0.67-0.39-1.2-0.98-1.59-1.75c-0.39-0.77-0.58-1.72-0.58-2.85s0.19-2.1,0.58-2.9
			c0.39-0.81,0.91-1.42,1.59-1.85c0.67-0.43,1.44-0.65,2.29-0.65c0.66,0,1.19,0.11,1.6,0.33c0.4,0.22,0.72,0.47,0.95,0.77
			c0.23,0.29,0.4,0.54,0.53,0.77h0.15v-1.72h2.02v10.85c0,0.91-0.21,1.66-0.63,2.25c-0.42,0.58-1,1.02-1.72,1.3
			C300.37,131.05,299.56,131.19,298.65,131.19z M298.63,125.12c0.59,0,1.1-0.14,1.51-0.42c0.41-0.28,0.73-0.68,0.94-1.2
			c0.21-0.52,0.32-1.15,0.32-1.88c0-0.71-0.11-1.34-0.32-1.88c-0.21-0.54-0.53-0.97-0.93-1.28c-0.41-0.31-0.92-0.46-1.52-0.46
			c-0.62,0-1.14,0.16-1.56,0.48c-0.41,0.32-0.73,0.75-0.94,1.3c-0.21,0.55-0.31,1.16-0.31,1.84c0,0.7,0.11,1.31,0.32,1.83
			c0.21,0.53,0.53,0.94,0.94,1.23C297.5,124.97,298.02,125.12,298.63,125.12z"/>
		<path class="st0" d="M310.4,127.21c-1.05,0-1.94-0.22-2.7-0.67c-0.75-0.45-1.33-1.08-1.74-1.9c-0.41-0.82-0.61-1.78-0.61-2.88
			c0-1.09,0.21-2.05,0.61-2.87c0.41-0.83,0.98-1.48,1.71-1.94c0.73-0.46,1.6-0.7,2.58-0.7c0.6,0,1.18,0.1,1.74,0.3
			c0.56,0.2,1.07,0.51,1.51,0.93c0.45,0.43,0.8,0.97,1.06,1.65s0.39,1.49,0.39,2.46v0.73h-8.44v-1.55h6.41
			c0-0.54-0.11-1.03-0.33-1.45c-0.22-0.42-0.53-0.75-0.93-1c-0.4-0.24-0.86-0.36-1.4-0.36c-0.58,0-1.09,0.14-1.51,0.42
			c-0.43,0.28-0.77,0.65-1,1.11c-0.23,0.45-0.35,0.95-0.35,1.47v1.21c0,0.71,0.13,1.31,0.38,1.81c0.25,0.5,0.6,0.88,1.05,1.14
			c0.45,0.26,0.98,0.39,1.58,0.39c0.39,0,0.75-0.06,1.07-0.17c0.32-0.12,0.6-0.28,0.83-0.51c0.24-0.22,0.42-0.5,0.54-0.84l1.95,0.35
			c-0.16,0.58-0.44,1.08-0.84,1.51c-0.4,0.43-0.91,0.77-1.51,1C311.86,127.09,311.17,127.21,310.4,127.21z"/>
		<path class="st0" d="M318.23,127.12c-0.38,0-0.7-0.13-0.97-0.4c-0.27-0.27-0.41-0.59-0.41-0.98c0-0.38,0.14-0.7,0.41-0.97
			c0.27-0.27,0.6-0.4,0.97-0.4c0.38,0,0.7,0.13,0.98,0.4c0.27,0.27,0.41,0.59,0.41,0.97c0,0.25-0.07,0.49-0.19,0.69
			c-0.13,0.21-0.3,0.38-0.5,0.5C318.71,127.06,318.48,127.12,318.23,127.12z"/>
	</g>
	<g>
		<path class="st1" d="M32.78,3.6H0v84.06h32.78c26.42,0,44.67-18.37,44.67-42.03v-0.24C77.45,21.73,59.2,3.6,32.78,3.6z"/>
		<path class="st0" d="M60.09,56.2l-30.9,17.84c-3.85,2.22-8.66-0.56-8.66-5V33.36c0-4.45,4.81-7.23,8.66-5l30.9,17.84
			C63.94,48.42,63.94,53.98,60.09,56.2z"/>
		<path class="st1" d="M227.97,0h18.25v87.66h-18.25V0z"/>
		<path class="st1" d="M257.53,102.79l6.12-13.21c2.4,1.44,5.41,2.52,7.81,2.52c3.12,0,4.8-0.96,6.36-4.2l-25.22-64.6h19.33
			l14.65,43.83l14.05-43.83h18.97l-24.74,65.93c-4.92,13.09-10.21,18.01-21.13,18.01C267.14,107.23,262.21,105.55,257.53,102.79z"/>
		<path class="st1" d="M144,22.95h-18.25v36.96h-0.05c0.01,0.15,0.04,0.29,0.04,0.43c0,6.2-5.03,11.23-11.23,11.23
			c-6.2,0-11.23-5.03-11.23-11.23c0-0.15,0.04-0.29,0.04-0.43h-0.04V22.95H85.04v37.1h0.1c0.92,15.47,13.72,27.75,29.42,27.75
			c15.59,0,28.31-12.11,29.39-27.42H144V22.95z"/>
		<path class="st1" d="M170.42,79.29v8.41h-18.26V0h18.26v32.56c4.45-6.01,10.57-10.45,20.06-10.45c15.02,0,29.32,11.77,29.32,33.28
			v0.24c0,21.5-14.06,33.28-29.32,33.28C180.76,88.9,174.75,84.46,170.42,79.29z M201.54,55.62v-0.24
			c0-10.69-7.21-17.78-15.74-17.78s-15.62,7.09-15.62,17.78v0.24c0,10.69,7.09,17.78,15.62,17.78S201.54,66.44,201.54,55.62z"/>
		<path class="st2" d="M55.47,50.3L26.62,66.96c-3.6,2.08-8.09-0.52-8.09-4.67V28.97c0-4.15,4.49-6.75,8.09-4.67l28.85,16.66
			C59.06,43.04,59.06,48.23,55.47,50.3z"/>
	</g>
</g>
</svg>